<?xml version="1.0" encoding="us-ascii" standalone="no"?><svg xmlns="http://www.w3.org/2000/svg" xmlns:xlink="http://www.w3.org/1999/xlink" contentStyleType="text/css" height="543px" preserveAspectRatio="none" style="width:821px;height:543px;background:#FFFFFF;" version="1.1" viewBox="0 0 821 543" width="821px" zoomAndPan="magnify"><defs/><g><!--class App--><g id="elem_App"><rect codeLine="6" fill="#F1F1F1" height="153.6563" id="App" rx="2.5" ry="2.5" style="stroke:#181818;stroke-width:0.5;" width="263" x="7" y="24.5"/><ellipse cx="121.75" cy="40.5" fill="#ADD1B2" rx="11" ry="11" style="stroke:#181818;stroke-width:1.0;"/><path d="M125.2656,41.8594 Q125.0469,45.2344 123.9063,46.3594 Q122.9063,47.3594 121.5313,47.3594 Q120.1563,47.3594 119.1563,46.3594 Q117.4219,44.625 117.4219,40.9844 Q117.4219,36.7656 119.2813,34.8906 Q120.2969,33.8906 121.5938,33.8906 Q122.9688,33.8906 123.7813,34.6875 Q125.25,36.1719 125.1875,38.9375 L123.1875,38.9375 Q123.125,36.6563 122.4688,36 Q122.1563,35.6719 121.5938,35.6719 Q121.1094,35.6719 120.7188,36.0625 Q119.4688,37.3125 119.4688,40.8594 Q119.4688,43.9375 120.5313,44.9844 Q120.9844,45.4375 121.5313,45.4375 Q122.0156,45.4375 122.4688,44.9844 Q123.0625,44.4063 123.125,41.8594 L125.2656,41.8594 Z " fill="#000000"/><text fill="#000000" font-family="sans-serif" font-size="14" lengthAdjust="spacing" textLength="25" x="142.25" y="46.2285">App</text><line style="stroke:#181818;stroke-width:0.5;" x1="8" x2="269" y1="56.5" y2="56.5"/><ellipse cx="18" cy="70.8047" fill="none" rx="3" ry="3" style="stroke:#038048;stroke-width:1.0;"/><text fill="#000000" font-family="sans-serif" font-size="14" lengthAdjust="spacing" textLength="107" x="27" y="75.0332">root: CustomCTk</text><ellipse cx="18" cy="88.4141" fill="none" rx="3" ry="3" style="stroke:#038048;stroke-width:1.0;"/><text fill="#000000" font-family="sans-serif" font-size="14" lengthAdjust="spacing" textLength="128" x="27" y="92.6426">my_model: MyModel</text><rect fill="none" height="6" style="stroke:#C82930;stroke-width:1.0;" width="6" x="15" y="103.0234"/><text fill="#000000" font-family="sans-serif" font-size="14" lengthAdjust="spacing" textLength="144" x="27" y="110.252">conns: &#12467;&#12531;&#12488;&#12525;&#12540;&#12521;&#32676;</text><rect fill="none" height="6" style="stroke:#C82930;stroke-width:1.0;" width="6" x="15" y="120.6328"/><text fill="#000000" font-family="sans-serif" font-size="14" lengthAdjust="spacing" textLength="176" x="27" y="127.8613">current_conn: &#12467;&#12531;&#12488;&#12525;&#12540;&#12521;</text><line style="stroke:#181818;stroke-width:0.5;" x1="8" x2="269" y1="134.9375" y2="134.9375"/><ellipse cx="18" cy="149.2422" fill="#84BE84" rx="3" ry="3" style="stroke:#038048;stroke-width:1.0;"/><text fill="#000000" font-family="sans-serif" font-size="14" lengthAdjust="spacing" textLength="237" x="27" y="153.4707">show_page(template_name: str): void</text><ellipse cx="18" cy="166.8516" fill="#84BE84" rx="3" ry="3" style="stroke:#038048;stroke-width:1.0;"/><text fill="#000000" font-family="sans-serif" font-size="14" lengthAdjust="spacing" textLength="65" x="27" y="171.0801">run(): void</text></g><!--class CustomCTk--><g id="elem_CustomCTk"><rect codeLine="15" fill="#F1F1F1" height="83.2188" id="CustomCTk" rx="2.5" ry="2.5" style="stroke:#181818;stroke-width:0.5;" width="215" x="305" y="60"/><ellipse cx="371.25" cy="76" fill="#ADD1B2" rx="11" ry="11" style="stroke:#181818;stroke-width:1.0;"/><path d="M374.7656,77.3594 Q374.5469,80.7344 373.4063,81.8594 Q372.4063,82.8594 371.0313,82.8594 Q369.6563,82.8594 368.6563,81.8594 Q366.9219,80.125 366.9219,76.4844 Q366.9219,72.2656 368.7813,70.3906 Q369.7969,69.3906 371.0938,69.3906 Q372.4688,69.3906 373.2813,70.1875 Q374.75,71.6719 374.6875,74.4375 L372.6875,74.4375 Q372.625,72.1563 371.9688,71.5 Q371.6563,71.1719 371.0938,71.1719 Q370.6094,71.1719 370.2188,71.5625 Q368.9688,72.8125 368.9688,76.3594 Q368.9688,79.4375 370.0313,80.4844 Q370.4844,80.9375 371.0313,80.9375 Q371.5156,80.9375 371.9688,80.4844 Q372.5625,79.9063 372.625,77.3594 L374.7656,77.3594 Z " fill="#000000"/><text fill="#000000" font-family="sans-serif" font-size="14" lengthAdjust="spacing" textLength="74" x="391.75" y="81.7285">CustomCTk</text><line style="stroke:#181818;stroke-width:0.5;" x1="306" x2="519" y1="92" y2="92"/><ellipse cx="316" cy="106.3047" fill="none" rx="3" ry="3" style="stroke:#038048;stroke-width:1.0;"/><text fill="#000000" font-family="sans-serif" font-size="14" lengthAdjust="spacing" textLength="46" x="325" y="110.5332">title: str</text><line style="stroke:#181818;stroke-width:0.5;" x1="306" x2="519" y1="117.6094" y2="117.6094"/><ellipse cx="316" cy="131.9141" fill="#84BE84" rx="3" ry="3" style="stroke:#038048;stroke-width:1.0;"/><text fill="#000000" font-family="sans-serif" font-size="14" lengthAdjust="spacing" textLength="189" x="325" y="136.1426">__init__(*args, **kwargs): void</text></g><!--class BaseController--><g id="elem_BaseController"><rect codeLine="20" fill="#F1F1F1" height="188.875" id="BaseController" rx="2.5" ry="2.5" style="stroke:#181818;stroke-width:0.5;" width="259" x="555" y="7"/><ellipse cx="633.25" cy="23" fill="#A9DCDF" rx="11" ry="11" style="stroke:#181818;stroke-width:1.0;"/><path d="M631.0781,29.3594 L628.9375,29.3594 L632.4063,15.8906 L634.1406,15.8906 L637.5938,29.3594 L635.4531,29.3594 L634.5313,25.5781 L632.0156,25.5781 L631.0781,29.3594 Z M633.2031,19.8281 L633.3281,19.8281 L632.4844,23.7813 L634.0469,23.7813 L633.2031,19.8281 Z " fill="#000000"/><text fill="#000000" font-family="sans-serif" font-size="14" font-style="italic" lengthAdjust="spacing" textLength="94" x="653.75" y="28.7285">BaseController</text><line style="stroke:#181818;stroke-width:0.5;" x1="556" x2="813" y1="39" y2="39"/><ellipse cx="566" cy="53.3047" fill="none" rx="3" ry="3" style="stroke:#038048;stroke-width:1.0;"/><text fill="#000000" font-family="sans-serif" font-size="14" lengthAdjust="spacing" textLength="57" x="575" y="57.5332">app: App</text><ellipse cx="566" cy="70.9141" fill="none" rx="3" ry="3" style="stroke:#038048;stroke-width:1.0;"/><text fill="#000000" font-family="sans-serif" font-size="14" lengthAdjust="spacing" textLength="107" x="575" y="75.1426">root: CustomCTk</text><rect fill="none" height="6" style="stroke:#C82930;stroke-width:1.0;" width="6" x="563" y="85.5234"/><text fill="#000000" font-family="sans-serif" font-size="14" lengthAdjust="spacing" textLength="149" x="575" y="92.752">ViewClass: &#12499;&#12517;&#12540;Class</text><rect fill="none" height="6" style="stroke:#C82930;stroke-width:1.0;" width="6" x="563" y="103.1328"/><text fill="#000000" font-family="sans-serif" font-size="14" lengthAdjust="spacing" textLength="95" x="575" y="110.3613">view: &#12499;&#12517;&#12540;Ins</text><line style="stroke:#181818;stroke-width:0.5;" x1="556" x2="813" y1="117.4375" y2="117.4375"/><ellipse cx="566" cy="131.7422" fill="#84BE84" rx="3" ry="3" style="stroke:#038048;stroke-width:1.0;"/><text fill="#000000" font-family="sans-serif" font-size="14" lengthAdjust="spacing" textLength="76" x="575" y="135.9707">show(): void</text><ellipse cx="566" cy="149.3516" fill="#84BE84" rx="3" ry="3" style="stroke:#038048;stroke-width:1.0;"/><text fill="#000000" font-family="sans-serif" font-size="14" lengthAdjust="spacing" textLength="233" x="575" y="153.5801">goto_page(template_name: str): void</text><polygon fill="#FFFF44" points="566,161.9609,570,165.9609,566,169.9609,562,165.9609" style="stroke:#B38D22;stroke-width:1.0;"/><text fill="#000000" font-family="sans-serif" font-size="14" lengthAdjust="spacing" textLength="149" x="575" y="171.1895">_set_view_event(): void</text><polygon fill="#FFFF44" points="566,179.5703,570,183.5703,566,187.5703,562,183.5703" style="stroke:#B38D22;stroke-width:1.0;"/><text fill="#000000" font-family="sans-serif" font-size="14" lengthAdjust="spacing" textLength="194" x="575" y="188.7988">_send_view_data(): dict | None</text></g><!--class Page1Controller--><g id="elem_Page1Controller"><rect codeLine="31" fill="#F1F1F1" height="100.8281" id="Page1Controller" rx="2.5" ry="2.5" style="stroke:#181818;stroke-width:0.5;" width="176" x="446.5" y="274"/><ellipse cx="479.95" cy="290" fill="#ADD1B2" rx="11" ry="11" style="stroke:#181818;stroke-width:1.0;"/><path d="M483.4656,291.3594 Q483.2469,294.7344 482.1063,295.8594 Q481.1063,296.8594 479.7313,296.8594 Q478.3563,296.8594 477.3563,295.8594 Q475.6219,294.125 475.6219,290.4844 Q475.6219,286.2656 477.4813,284.3906 Q478.4969,283.3906 479.7938,283.3906 Q481.1688,283.3906 481.9813,284.1875 Q483.45,285.6719 483.3875,288.4375 L481.3875,288.4375 Q481.325,286.1563 480.6688,285.5 Q480.3563,285.1719 479.7938,285.1719 Q479.3094,285.1719 478.9188,285.5625 Q477.6688,286.8125 477.6688,290.3594 Q477.6688,293.4375 478.7313,294.4844 Q479.1844,294.9375 479.7313,294.9375 Q480.2156,294.9375 480.6688,294.4844 Q481.2625,293.9063 481.325,291.3594 L483.4656,291.3594 Z " fill="#000000"/><text fill="#000000" font-family="sans-serif" font-size="14" lengthAdjust="spacing" textLength="103" x="498.05" y="295.7285">Page1Controller</text><line style="stroke:#181818;stroke-width:0.5;" x1="447.5" x2="621.5" y1="306" y2="306"/><rect fill="none" height="6" style="stroke:#C82930;stroke-width:1.0;" width="6" x="454.5" y="317.3047"/><text fill="#000000" font-family="sans-serif" font-size="14" lengthAdjust="spacing" textLength="128" x="466.5" y="324.5332">my_model: MyModel</text><line style="stroke:#181818;stroke-width:0.5;" x1="447.5" x2="621.5" y1="331.6094" y2="331.6094"/><ellipse cx="457.5" cy="345.9141" fill="#84BE84" rx="3" ry="3" style="stroke:#038048;stroke-width:1.0;"/><text fill="#000000" font-family="sans-serif" font-size="14" lengthAdjust="spacing" textLength="149" x="466.5" y="350.1426">_set_view_event(): void</text><ellipse cx="457.5" cy="363.5234" fill="#84BE84" rx="3" ry="3" style="stroke:#038048;stroke-width:1.0;"/><text fill="#000000" font-family="sans-serif" font-size="14" lengthAdjust="spacing" textLength="150" x="466.5" y="367.752">_send_view_data(): dict</text></g><!--class Page2Controller--><g id="elem_Page2Controller"><rect codeLine="37" fill="#F1F1F1" height="100.8281" id="Page2Controller" rx="2.5" ry="2.5" style="stroke:#181818;stroke-width:0.5;" width="176" x="202.5" y="274"/><ellipse cx="235.95" cy="290" fill="#ADD1B2" rx="11" ry="11" style="stroke:#181818;stroke-width:1.0;"/><path d="M239.4656,291.3594 Q239.2469,294.7344 238.1063,295.8594 Q237.1063,296.8594 235.7313,296.8594 Q234.3563,296.8594 233.3563,295.8594 Q231.6219,294.125 231.6219,290.4844 Q231.6219,286.2656 233.4813,284.3906 Q234.4969,283.3906 235.7938,283.3906 Q237.1688,283.3906 237.9813,284.1875 Q239.45,285.6719 239.3875,288.4375 L237.3875,288.4375 Q237.325,286.1563 236.6688,285.5 Q236.3563,285.1719 235.7938,285.1719 Q235.3094,285.1719 234.9188,285.5625 Q233.6688,286.8125 233.6688,290.3594 Q233.6688,293.4375 234.7313,294.4844 Q235.1844,294.9375 235.7313,294.9375 Q236.2156,294.9375 236.6688,294.4844 Q237.2625,293.9063 237.325,291.3594 L239.4656,291.3594 Z " fill="#000000"/><text fill="#000000" font-family="sans-serif" font-size="14" lengthAdjust="spacing" textLength="103" x="254.05" y="295.7285">Page2Controller</text><line style="stroke:#181818;stroke-width:0.5;" x1="203.5" x2="377.5" y1="306" y2="306"/><rect fill="none" height="6" style="stroke:#C82930;stroke-width:1.0;" width="6" x="210.5" y="317.3047"/><text fill="#000000" font-family="sans-serif" font-size="14" lengthAdjust="spacing" textLength="128" x="222.5" y="324.5332">my_model: MyModel</text><line style="stroke:#181818;stroke-width:0.5;" x1="203.5" x2="377.5" y1="331.6094" y2="331.6094"/><ellipse cx="213.5" cy="345.9141" fill="#84BE84" rx="3" ry="3" style="stroke:#038048;stroke-width:1.0;"/><text fill="#000000" font-family="sans-serif" font-size="14" lengthAdjust="spacing" textLength="149" x="222.5" y="350.1426">_set_view_event(): void</text><ellipse cx="213.5" cy="363.5234" fill="#84BE84" rx="3" ry="3" style="stroke:#038048;stroke-width:1.0;"/><text fill="#000000" font-family="sans-serif" font-size="14" lengthAdjust="spacing" textLength="150" x="222.5" y="367.752">_send_view_data(): dict</text></g><!--class MyModel--><g id="elem_MyModel"><rect codeLine="43" fill="#F1F1F1" height="83.2188" id="MyModel" rx="2.5" ry="2.5" style="stroke:#181818;stroke-width:0.5;" width="183" x="290" y="453"/><ellipse cx="349.25" cy="469" fill="#ADD1B2" rx="11" ry="11" style="stroke:#181818;stroke-width:1.0;"/><path d="M352.7656,470.3594 Q352.5469,473.7344 351.4063,474.8594 Q350.4063,475.8594 349.0313,475.8594 Q347.6563,475.8594 346.6563,474.8594 Q344.9219,473.125 344.9219,469.4844 Q344.9219,465.2656 346.7813,463.3906 Q347.7969,462.3906 349.0938,462.3906 Q350.4688,462.3906 351.2813,463.1875 Q352.75,464.6719 352.6875,467.4375 L350.6875,467.4375 Q350.625,465.1563 349.9688,464.5 Q349.6563,464.1719 349.0938,464.1719 Q348.6094,464.1719 348.2188,464.5625 Q346.9688,465.8125 346.9688,469.3594 Q346.9688,472.4375 348.0313,473.4844 Q348.4844,473.9375 349.0313,473.9375 Q349.5156,473.9375 349.9688,473.4844 Q350.5625,472.9063 350.625,470.3594 L352.7656,470.3594 Z " fill="#000000"/><text fill="#000000" font-family="sans-serif" font-size="14" lengthAdjust="spacing" textLength="56" x="369.75" y="474.7285">MyModel</text><line style="stroke:#181818;stroke-width:0.5;" x1="291" x2="472" y1="485" y2="485"/><ellipse cx="301" cy="499.3047" fill="none" rx="3" ry="3" style="stroke:#038048;stroke-width:1.0;"/><text fill="#000000" font-family="sans-serif" font-size="14" lengthAdjust="spacing" textLength="132" x="310" y="503.5332">title: tkinter.StringVar</text><ellipse cx="301" cy="516.9141" fill="none" rx="3" ry="3" style="stroke:#038048;stroke-width:1.0;"/><text fill="#000000" font-family="sans-serif" font-size="14" lengthAdjust="spacing" textLength="157" x="310" y="521.1426">content: tkinter.StringVar</text><line style="stroke:#181818;stroke-width:0.5;" x1="291" x2="472" y1="528.2188" y2="528.2188"/></g><!--class Page1--><g id="elem_Page1"><rect codeLine="48" fill="#F1F1F1" height="83.2188" id="Page1" rx="2.5" ry="2.5" style="stroke:#181818;stroke-width:0.5;" width="128" x="508.5" y="453"/><ellipse cx="548.25" cy="469" fill="#ADD1B2" rx="11" ry="11" style="stroke:#181818;stroke-width:1.0;"/><path d="M551.7656,470.3594 Q551.5469,473.7344 550.4063,474.8594 Q549.4063,475.8594 548.0313,475.8594 Q546.6563,475.8594 545.6563,474.8594 Q543.9219,473.125 543.9219,469.4844 Q543.9219,465.2656 545.7813,463.3906 Q546.7969,462.3906 548.0938,462.3906 Q549.4688,462.3906 550.2813,463.1875 Q551.75,464.6719 551.6875,467.4375 L549.6875,467.4375 Q549.625,465.1563 548.9688,464.5 Q548.6563,464.1719 548.0938,464.1719 Q547.6094,464.1719 547.2188,464.5625 Q545.9688,465.8125 545.9688,469.3594 Q545.9688,472.4375 547.0313,473.4844 Q547.4844,473.9375 548.0313,473.9375 Q548.5156,473.9375 548.9688,473.4844 Q549.5625,472.9063 549.625,470.3594 L551.7656,470.3594 Z " fill="#000000"/><text fill="#000000" font-family="sans-serif" font-size="14" lengthAdjust="spacing" textLength="41" x="567.75" y="474.7285">Page1</text><line style="stroke:#181818;stroke-width:0.5;" x1="509.5" x2="635.5" y1="485" y2="485"/><rect fill="none" height="6" style="stroke:#C82930;stroke-width:1.0;" width="6" x="516.5" y="496.3047"/><text fill="#000000" font-family="sans-serif" font-size="14" lengthAdjust="spacing" textLength="102" x="528.5" y="503.5332">data: dict | None</text><line style="stroke:#181818;stroke-width:0.5;" x1="509.5" x2="635.5" y1="510.6094" y2="510.6094"/><ellipse cx="519.5" cy="524.9141" fill="#84BE84" rx="3" ry="3" style="stroke:#038048;stroke-width:1.0;"/><text fill="#000000" font-family="sans-serif" font-size="14" lengthAdjust="spacing" textLength="93" x="528.5" y="529.1426">build_ui(): void</text></g><!--class Page2--><g id="elem_Page2"><rect codeLine="53" fill="#F1F1F1" height="83.2188" id="Page2" rx="2.5" ry="2.5" style="stroke:#181818;stroke-width:0.5;" width="128" x="126.5" y="453"/><ellipse cx="166.25" cy="469" fill="#ADD1B2" rx="11" ry="11" style="stroke:#181818;stroke-width:1.0;"/><path d="M169.7656,470.3594 Q169.5469,473.7344 168.4063,474.8594 Q167.4063,475.8594 166.0313,475.8594 Q164.6563,475.8594 163.6563,474.8594 Q161.9219,473.125 161.9219,469.4844 Q161.9219,465.2656 163.7813,463.3906 Q164.7969,462.3906 166.0938,462.3906 Q167.4688,462.3906 168.2813,463.1875 Q169.75,464.6719 169.6875,467.4375 L167.6875,467.4375 Q167.625,465.1563 166.9688,464.5 Q166.6563,464.1719 166.0938,464.1719 Q165.6094,464.1719 165.2188,464.5625 Q163.9688,465.8125 163.9688,469.3594 Q163.9688,472.4375 165.0313,473.4844 Q165.4844,473.9375 166.0313,473.9375 Q166.5156,473.9375 166.9688,473.4844 Q167.5625,472.9063 167.625,470.3594 L169.7656,470.3594 Z " fill="#000000"/><text fill="#000000" font-family="sans-serif" font-size="14" lengthAdjust="spacing" textLength="41" x="185.75" y="474.7285">Page2</text><line style="stroke:#181818;stroke-width:0.5;" x1="127.5" x2="253.5" y1="485" y2="485"/><rect fill="none" height="6" style="stroke:#C82930;stroke-width:1.0;" width="6" x="134.5" y="496.3047"/><text fill="#000000" font-family="sans-serif" font-size="14" lengthAdjust="spacing" textLength="102" x="146.5" y="503.5332">data: dict | None</text><line style="stroke:#181818;stroke-width:0.5;" x1="127.5" x2="253.5" y1="510.6094" y2="510.6094"/><ellipse cx="137.5" cy="524.9141" fill="#84BE84" rx="3" ry="3" style="stroke:#038048;stroke-width:1.0;"/><text fill="#000000" font-family="sans-serif" font-size="14" lengthAdjust="spacing" textLength="93" x="146.5" y="529.1426">build_ui(): void</text></g><!--reverse link App to CustomCTk--><g id="link_App_CustomCTk"><path codeLine="58" d="M282.15,101.5 C293.73,101.5 293.32,101.5 304.9,101.5 " fill="none" id="App-backto-CustomCTk" style="stroke:#181818;stroke-width:1.0;"/><polygon fill="#181818" points="270.15,101.5,276.15,105.5,282.15,101.5,276.15,97.5,270.15,101.5" style="stroke:#181818;stroke-width:1.0;"/><text fill="#000000" font-family="sans-serif" font-size="13" lengthAdjust="spacing" textLength="7" x="277.9634" y="98.5527">1</text><text fill="#000000" font-family="sans-serif" font-size="13" lengthAdjust="spacing" textLength="7" x="290.0883" y="98.4373">1</text></g><!--reverse link App to MyModel--><g id="link_App_MyModel"><path codeLine="59" d="M140.8715,190.7532 C144.6615,247.3732 154.73,313.19 184.5,375 C196.93,400.8 204.44,406.01 227.5,423 C246.32,436.86 268.31,448.91 289.67,458.94 " fill="none" id="App-backto-MyModel" style="stroke:#181818;stroke-width:1.0;"/><polygon fill="#181818" points="140.07,178.78,136.4797,185.0338,140.8715,190.7532,144.4618,184.4995,140.07,178.78" style="stroke:#181818;stroke-width:1.0;"/><text fill="#000000" font-family="sans-serif" font-size="13" lengthAdjust="spacing" textLength="7" x="132.9041" y="199.6337">1</text><text fill="#000000" font-family="sans-serif" font-size="13" lengthAdjust="spacing" textLength="7" x="275.0734" y="452.9692">1</text></g><!--link Page1Controller to MyModel--><g id="link_Page1Controller_MyModel"><path codeLine="60" d="M489.01,375.45 C466.55,400.11 443.8298,425.0538 422.6298,448.3338 " fill="none" id="Page1Controller-to-MyModel" style="stroke:#181818;stroke-width:1.0;"/><polygon fill="#181818" points="418.59,452.77,427.6072,448.8089,421.9565,449.0732,421.6923,443.4225,418.59,452.77" style="stroke:#181818;stroke-width:1.0;"/><text fill="#000000" font-family="sans-serif" font-size="13" lengthAdjust="spacing" textLength="65" x="459.5" y="419.4951">&#12487;&#12540;&#12479;&#21462;&#24471;</text></g><!--link Page2Controller to MyModel--><g id="link_Page2Controller_MyModel"><path codeLine="61" d="M311.01,375.12 C317.95,390.71 326.08,407.81 334.5,423 C339.99,432.91 343.1308,438.2185 349.4508,447.8185 " fill="none" id="Page2Controller-to-MyModel" style="stroke:#181818;stroke-width:1.0;"/><polygon fill="#181818" points="352.75,452.83,351.1421,443.1133,350.0006,448.6538,344.4602,447.5122,352.75,452.83" style="stroke:#181818;stroke-width:1.0;"/><text fill="#000000" font-family="sans-serif" font-size="13" lengthAdjust="spacing" textLength="65" x="335.5" y="419.4951">&#12487;&#12540;&#12479;&#21462;&#24471;</text></g><!--reverse link BaseController to Page1Controller--><g id="link_BaseController_Page1Controller"><path codeLine="62" d="M610.7809,211.1132 C592.6509,237.8232 583.73,250.97 568.15,273.92 " fill="none" id="BaseController-backto-Page1Controller" style="stroke:#181818;stroke-width:1.0;"/><polygon fill="none" points="620.89,196.22,605.8165,207.7435,615.7453,214.4829,620.89,196.22" style="stroke:#181818;stroke-width:1.0;"/><text fill="#000000" font-family="sans-serif" font-size="13" lengthAdjust="spacing" textLength="26" x="601.5" y="240.4951">&#32153;&#25215;</text></g><!--reverse link BaseController to Page2Controller--><g id="link_BaseController_Page2Controller"><path codeLine="63" d="M539.7523,204.6271 C513.3723,221.8671 500.49,229.24 473.5,244 C443.41,260.45 409.22,276.07 378.61,289.03 " fill="none" id="BaseController-backto-Page2Controller" style="stroke:#181818;stroke-width:1.0;"/><polygon fill="none" points="554.82,194.78,536.47,199.6045,543.0347,209.6497,554.82,194.78" style="stroke:#181818;stroke-width:1.0;"/><text fill="#000000" font-family="sans-serif" font-size="13" lengthAdjust="spacing" textLength="26" x="503.5" y="240.4951">&#32153;&#25215;</text></g><!--reverse link App to Page1Controller--><g id="link_App_Page1Controller"><path codeLine="64" d="M268.2099,184.8339 C278.1599,190.8039 277.82,190.48 287.5,196 C339.37,225.59 398.81,256.37 446.38,280.27 " fill="none" id="App-backto-Page1Controller" style="stroke:#181818;stroke-width:1.0;"/><polygon fill="#181818" points="257.92,178.66,261.007,185.1769,268.2099,184.8339,265.1229,178.317,257.92,178.66" style="stroke:#181818;stroke-width:1.0;"/><text fill="#000000" font-family="sans-serif" font-size="13" lengthAdjust="spacing" textLength="26" x="376.5" y="240.4951">&#31649;&#29702;</text><text fill="#000000" font-family="sans-serif" font-size="13" lengthAdjust="spacing" textLength="7" x="261.2441" y="199.7706">1</text><text fill="#000000" font-family="sans-serif" font-size="13" lengthAdjust="spacing" textLength="7" x="431.5064" y="273.2991">1</text></g><!--reverse link App to Page2Controller--><g id="link_App_Page2Controller"><path codeLine="65" d="M197.6107,188.4469 C219.2507,219.9069 236.94,245.62 256.23,273.67 " fill="none" id="App-backto-Page2Controller" style="stroke:#181818;stroke-width:1.0;"/><polygon fill="#181818" points="190.81,178.56,190.9148,185.7703,197.6107,188.4469,197.506,181.2365,190.81,178.56" style="stroke:#181818;stroke-width:1.0;"/><text fill="#000000" font-family="sans-serif" font-size="13" lengthAdjust="spacing" textLength="26" x="234.5" y="240.4951">&#31649;&#29702;</text><text fill="#000000" font-family="sans-serif" font-size="13" lengthAdjust="spacing" textLength="7" x="188.1571" y="199.6617">1</text><text fill="#000000" font-family="sans-serif" font-size="13" lengthAdjust="spacing" textLength="7" x="244.1547" y="263.295">1</text></g><!--reverse link Page1Controller to Page1--><g id="link_Page1Controller_Page1"><path codeLine="67" d="M548.4484,387.1541 C554.0284,411.8141 558.02,429.49 563.29,452.77 " fill="none" id="Page1Controller-backto-Page1" style="stroke:#181818;stroke-width:1.0;"/><polygon fill="#181818" points="545.8,375.45,543.2228,382.1848,548.4484,387.1541,551.0256,380.4193,545.8,375.45" style="stroke:#181818;stroke-width:1.0;"/><text fill="#000000" font-family="sans-serif" font-size="13" lengthAdjust="spacing" textLength="38" x="556.5" y="419.4951">UI&#29983;&#25104;</text><text fill="#000000" font-family="sans-serif" font-size="13" lengthAdjust="spacing" textLength="7" x="539.7506" y="396.1615">1</text><text fill="#000000" font-family="sans-serif" font-size="13" lengthAdjust="spacing" textLength="7" x="554.1849" y="442.0396">1</text></g><!--reverse link Page2Controller to Page2--><g id="link_Page2Controller_Page2"><path codeLine="68" d="M254.6318,385.7613 C239.9518,410.4213 228.6,429.49 214.74,452.77 " fill="none" id="Page2Controller-backto-Page2" style="stroke:#181818;stroke-width:1.0;"/><polygon fill="#181818" points="260.77,375.45,254.2638,378.5595,254.6318,385.7613,261.138,382.6517,260.77,375.45" style="stroke:#181818;stroke-width:1.0;"/><text fill="#000000" font-family="sans-serif" font-size="13" lengthAdjust="spacing" textLength="38" x="241.5" y="419.4951">UI&#29983;&#25104;</text><text fill="#000000" font-family="sans-serif" font-size="13" lengthAdjust="spacing" textLength="7" x="249.7201" y="396.1615">1</text><text fill="#000000" font-family="sans-serif" font-size="13" lengthAdjust="spacing" textLength="7" x="211.1751" y="442.0396">1</text></g><!--SRC=[lLFFQzH06Btdh_XQBt7N2DrZ444NX1ugWjhhCDsCwR39J9XysQLOBmreFLbG54-be0SFUX4yIVl7X7R_3MUIpOzDiejuSDb3yhsNz_9Uljdos0ik68oVJM6In2X3d7A1JDtL4skhHXyf6h8k9HzNlAUekF3tgOAIKaqiQnBGE8O7KGGlBT2_8IWfqOLnhcdiYcbuH4BfiS25lQCzSv7F7PX88M8NifEVMQh_frdwFKj_P-ctnUMNaf8enGGIG-rZBXtYGpad4VMPZIoC0egC21t3XHZLRHTcadlb6oR2BYUloWZL2rT1a6DGFBuS4C85HqBi0LL-V0S6W-dSN3Mqw86cqmb28VgGncmi1IeP14nLoZIANDFPXiOSsETiFZOgEdFwFak_whJv_HAVQRm1xOguKOIzcjYNAF-ccrj0OeR4I1CsqwNR7LHu1UnHf0Rrk4vx38-bO7MPJxJLJYUuisOBXXjTX-jSL-r6_yzkATPUbFfK56EzhwZLcy1gGTLx6flL9Wk5WuG77abuTrlpnF_ql3cgsplRC70Kzm_HoM_gtQlX0YcBQtzHnxbVzM2sy8qvYoTNr-y-Nbz-ijeVP3ExTKhk7MlljfyBYr-VRzvUhIMF-iZjD3sgFouMPwzxYQC-OgU8ZhpcFjzTV3Y_EJthzD2nQ9B_0000]--></g></svg>