<?xml version="1.0" encoding="us-ascii" standalone="no"?><svg xmlns="http://www.w3.org/2000/svg" xmlns:xlink="http://www.w3.org/1999/xlink" contentStyleType="text/css" height="787px" preserveAspectRatio="none" style="width:1259px;height:787px;background:#FFFFFF;" version="1.1" viewBox="0 0 1259 787" width="1259px" zoomAndPan="magnify"><defs/><g><line style="stroke:#181818;stroke-width:0.5;stroke-dasharray:5.0,5.0;" x1="22" x2="22" y1="82.6094" y2="705.6406"/><line style="stroke:#181818;stroke-width:0.5;stroke-dasharray:5.0,5.0;" x1="190" x2="190" y1="82.6094" y2="705.6406"/><line style="stroke:#181818;stroke-width:0.5;stroke-dasharray:5.0,5.0;" x1="357" x2="357" y1="82.6094" y2="705.6406"/><line style="stroke:#181818;stroke-width:0.5;stroke-dasharray:5.0,5.0;" x1="681" x2="681" y1="82.6094" y2="705.6406"/><line style="stroke:#181818;stroke-width:0.5;stroke-dasharray:5.0,5.0;" x1="794" x2="794" y1="82.6094" y2="705.6406"/><line style="stroke:#181818;stroke-width:0.5;stroke-dasharray:5.0,5.0;" x1="1166" x2="1166" y1="82.6094" y2="705.6406"/><text fill="#000000" font-family="sans-serif" font-size="14" lengthAdjust="spacing" textLength="29" x="5" y="79.5332">User</text><ellipse cx="22.5" cy="13.5" fill="#E2E2F0" rx="8" ry="8" style="stroke:#181818;stroke-width:0.5;"/><path d="M22.5,21.5 L22.5,48.5 M9.5,29.5 L35.5,29.5 M22.5,48.5 L9.5,63.5 M22.5,48.5 L35.5,63.5 " fill="none" style="stroke:#181818;stroke-width:0.5;"/><text fill="#000000" font-family="sans-serif" font-size="14" lengthAdjust="spacing" textLength="29" x="5" y="719.1738">User</text><ellipse cx="22.5" cy="730.75" fill="#E2E2F0" rx="8" ry="8" style="stroke:#181818;stroke-width:0.5;"/><path d="M22.5,738.75 L22.5,765.75 M9.5,746.75 L35.5,746.75 M22.5,765.75 L9.5,780.75 M22.5,765.75 L35.5,780.75 " fill="none" style="stroke:#181818;stroke-width:0.5;"/><rect fill="#E2E2F0" height="31.6094" rx="2.5" ry="2.5" style="stroke:#181818;stroke-width:0.5;" width="55" x="163" y="50"/><text fill="#000000" font-family="sans-serif" font-size="14" lengthAdjust="spacing" textLength="41" x="170" y="71.5332">Page1</text><rect fill="#E2E2F0" height="31.6094" rx="2.5" ry="2.5" style="stroke:#181818;stroke-width:0.5;" width="55" x="163" y="704.6406"/><text fill="#000000" font-family="sans-serif" font-size="14" lengthAdjust="spacing" textLength="41" x="170" y="726.1738">Page1</text><rect fill="#E2E2F0" height="31.6094" rx="2.5" ry="2.5" style="stroke:#181818;stroke-width:0.5;" width="117" x="299" y="50"/><text fill="#000000" font-family="sans-serif" font-size="14" lengthAdjust="spacing" textLength="103" x="306" y="71.5332">Page1Controller</text><rect fill="#E2E2F0" height="31.6094" rx="2.5" ry="2.5" style="stroke:#181818;stroke-width:0.5;" width="117" x="299" y="704.6406"/><text fill="#000000" font-family="sans-serif" font-size="14" lengthAdjust="spacing" textLength="103" x="306" y="726.1738">Page1Controller</text><rect fill="#E2E2F0" height="31.6094" rx="2.5" ry="2.5" style="stroke:#181818;stroke-width:0.5;" width="39" x="662" y="50"/><text fill="#000000" font-family="sans-serif" font-size="14" lengthAdjust="spacing" textLength="25" x="669" y="71.5332">App</text><rect fill="#E2E2F0" height="31.6094" rx="2.5" ry="2.5" style="stroke:#181818;stroke-width:0.5;" width="39" x="662" y="704.6406"/><text fill="#000000" font-family="sans-serif" font-size="14" lengthAdjust="spacing" textLength="25" x="669" y="726.1738">App</text><rect fill="#E2E2F0" height="31.6094" rx="2.5" ry="2.5" style="stroke:#181818;stroke-width:0.5;" width="117" x="736" y="50"/><text fill="#000000" font-family="sans-serif" font-size="14" lengthAdjust="spacing" textLength="103" x="743" y="71.5332">Page2Controller</text><rect fill="#E2E2F0" height="31.6094" rx="2.5" ry="2.5" style="stroke:#181818;stroke-width:0.5;" width="117" x="736" y="704.6406"/><text fill="#000000" font-family="sans-serif" font-size="14" lengthAdjust="spacing" textLength="103" x="743" y="726.1738">Page2Controller</text><rect fill="#E2E2F0" height="31.6094" rx="2.5" ry="2.5" style="stroke:#181818;stroke-width:0.5;" width="55" x="1139" y="50"/><text fill="#000000" font-family="sans-serif" font-size="14" lengthAdjust="spacing" textLength="41" x="1146" y="71.5332">Page2</text><rect fill="#E2E2F0" height="31.6094" rx="2.5" ry="2.5" style="stroke:#181818;stroke-width:0.5;" width="55" x="1139" y="704.6406"/><text fill="#000000" font-family="sans-serif" font-size="14" lengthAdjust="spacing" textLength="41" x="1146" y="726.1738">Page2</text><rect fill="#EEEEEE" height="3" style="stroke:#EEEEEE;stroke-width:1.0;" width="1252.5" x="0" y="113.7852"/><line style="stroke:#000000;stroke-width:1.0;" x1="0" x2="1252.5" y1="113.7852" y2="113.7852"/><line style="stroke:#000000;stroke-width:1.0;" x1="0" x2="1252.5" y1="116.7852" y2="116.7852"/><rect fill="#EEEEEE" height="24.3516" style="stroke:#000000;stroke-width:2.0;" width="98.4375" x="577.0313" y="102.6094"/><text fill="#000000" font-family="sans-serif" font-size="13" font-weight="bold" lengthAdjust="spacing" textLength="80.4375" x="583.0313" y="120.1045">&#12518;&#12540;&#12470;&#12540;&#25805;&#20316;</text><polygon fill="#181818" points="178.5,155.3125,188.5,159.3125,178.5,163.3125,182.5,159.3125" style="stroke:#181818;stroke-width:1.0;"/><line style="stroke:#181818;stroke-width:1.0;" x1="22.5" x2="184.5" y1="159.3125" y2="159.3125"/><text fill="#000000" font-family="sans-serif" font-size="13" lengthAdjust="spacing" textLength="144" x="29.5" y="154.4561">"Send"&#12508;&#12479;&#12531;&#12434;&#12463;&#12522;&#12483;&#12463;</text><rect fill="#EEEEEE" height="3" style="stroke:#EEEEEE;stroke-width:1.0;" width="1252.5" x="0" y="188.4883"/><line style="stroke:#000000;stroke-width:1.0;" x1="0" x2="1252.5" y1="188.4883" y2="188.4883"/><line style="stroke:#000000;stroke-width:1.0;" x1="0" x2="1252.5" y1="191.4883" y2="191.4883"/><rect fill="#EEEEEE" height="24.3516" style="stroke:#000000;stroke-width:2.0;" width="165.4688" x="543.5156" y="177.3125"/><text fill="#000000" font-family="sans-serif" font-size="13" font-weight="bold" lengthAdjust="spacing" textLength="147.4688" x="549.5156" y="194.8076">&#12467;&#12531;&#12488;&#12525;&#12540;&#12521;&#12395;&#12424;&#12427;&#20966;&#29702;</text><polygon fill="#181818" points="345.5,246.3672,355.5,250.3672,345.5,254.3672,349.5,250.3672" style="stroke:#181818;stroke-width:1.0;"/><line style="stroke:#181818;stroke-width:1.0;" x1="190.5" x2="351.5" y1="250.3672" y2="250.3672"/><text fill="#000000" font-family="sans-serif" font-size="13" lengthAdjust="spacing" textLength="115" x="197.5" y="229.1592">goto_page("Page2")</text><text fill="#000000" font-family="sans-serif" font-size="13" lengthAdjust="spacing" textLength="143" x="197.5" y="245.5107">&#12506;&#12540;&#12472;&#36983;&#31227;&#20966;&#29702;&#21628;&#12403;&#20986;&#12375;</text><polygon fill="#181818" points="669.5,293.0703,679.5,297.0703,669.5,301.0703,673.5,297.0703" style="stroke:#181818;stroke-width:1.0;"/><line style="stroke:#181818;stroke-width:1.0;" x1="357.5" x2="675.5" y1="297.0703" y2="297.0703"/><text fill="#000000" font-family="sans-serif" font-size="13" lengthAdjust="spacing" textLength="120" x="364.5" y="275.8623">show_page("Page2")</text><text fill="#000000" font-family="sans-serif" font-size="13" lengthAdjust="spacing" textLength="300" x="364.5" y="292.2139">"Page2"&#12398;&#12467;&#12531;&#12488;&#12525;&#12540;&#12521;&#12363;&#12425;Show&#12513;&#12477;&#12483;&#12489;&#21628;&#12403;&#20986;&#12375;</text><polygon fill="#181818" points="782.5,339.7734,792.5,343.7734,782.5,347.7734,786.5,343.7734" style="stroke:#181818;stroke-width:1.0;"/><line style="stroke:#181818;stroke-width:1.0;" x1="681.5" x2="788.5" y1="343.7734" y2="343.7734"/><text fill="#000000" font-family="sans-serif" font-size="13" lengthAdjust="spacing" textLength="38" x="688.5" y="322.5654">show()</text><text fill="#000000" font-family="sans-serif" font-size="13" lengthAdjust="spacing" textLength="89" x="688.5" y="338.917">Page2&#34920;&#31034;&#20966;&#29702;</text><line style="stroke:#181818;stroke-width:1.0;" x1="794.5" x2="836.5" y1="390.4766" y2="390.4766"/><line style="stroke:#181818;stroke-width:1.0;" x1="836.5" x2="836.5" y1="390.4766" y2="403.4766"/><line style="stroke:#181818;stroke-width:1.0;" x1="795.5" x2="836.5" y1="403.4766" y2="403.4766"/><polygon fill="#181818" points="805.5,399.4766,795.5,403.4766,805.5,407.4766,801.5,403.4766" style="stroke:#181818;stroke-width:1.0;"/><text fill="#000000" font-family="sans-serif" font-size="13" lengthAdjust="spacing" textLength="130" x="801.5" y="369.2686">self._send_view_data()</text><text fill="#000000" font-family="sans-serif" font-size="13" lengthAdjust="spacing" textLength="104" x="801.5" y="385.6201">&#34920;&#31034;&#29992;&#12487;&#12540;&#12479;&#21462;&#24471;</text><rect fill="#EEEEEE" height="3" style="stroke:#EEEEEE;stroke-width:1.0;" width="1252.5" x="0" y="432.6523"/><line style="stroke:#000000;stroke-width:1.0;" x1="0" x2="1252.5" y1="432.6523" y2="432.6523"/><line style="stroke:#000000;stroke-width:1.0;" x1="0" x2="1252.5" y1="435.6523" y2="435.6523"/><rect fill="#EEEEEE" height="24.3516" style="stroke:#000000;stroke-width:2.0;" width="105.4375" x="573.5313" y="421.4766"/><text fill="#000000" font-family="sans-serif" font-size="13" font-weight="bold" lengthAdjust="spacing" textLength="87.4375" x="579.5313" y="438.9717">&#12506;&#12540;&#12472;2&#12398;&#34920;&#31034;</text><polygon fill="#181818" points="1154.5,490.5313,1164.5,494.5313,1154.5,498.5313,1158.5,494.5313" style="stroke:#181818;stroke-width:1.0;"/><line style="stroke:#181818;stroke-width:1.0;" x1="794.5" x2="1160.5" y1="494.5313" y2="494.5313"/><text fill="#000000" font-family="sans-serif" font-size="13" lengthAdjust="spacing" textLength="204" x="801.5" y="473.3232">&#12452;&#12531;&#12473;&#12479;&#12531;&#12473;&#29983;&#25104;&#8251;self.view&#12391;&#20445;&#25345;</text><text fill="#000000" font-family="sans-serif" font-size="13" lengthAdjust="spacing" textLength="38" x="801.5" y="489.6748">UI&#29983;&#25104;</text><line style="stroke:#181818;stroke-width:1.0;" x1="1166.5" x2="1208.5" y1="541.2344" y2="541.2344"/><line style="stroke:#181818;stroke-width:1.0;" x1="1208.5" x2="1208.5" y1="541.2344" y2="554.2344"/><line style="stroke:#181818;stroke-width:1.0;" x1="1167.5" x2="1208.5" y1="554.2344" y2="554.2344"/><polygon fill="#181818" points="1177.5,550.2344,1167.5,554.2344,1177.5,558.2344,1173.5,554.2344" style="stroke:#181818;stroke-width:1.0;"/><text fill="#000000" font-family="sans-serif" font-size="13" lengthAdjust="spacing" textLength="72" x="1173.5" y="520.0264">build_ui(self)</text><text fill="#000000" font-family="sans-serif" font-size="13" lengthAdjust="spacing" textLength="38" x="1173.5" y="536.3779">UI&#29983;&#25104;</text><line style="stroke:#181818;stroke-width:1.0;" x1="794.5" x2="836.5" y1="600.9375" y2="600.9375"/><line style="stroke:#181818;stroke-width:1.0;" x1="836.5" x2="836.5" y1="600.9375" y2="613.9375"/><line style="stroke:#181818;stroke-width:1.0;" x1="795.5" x2="836.5" y1="613.9375" y2="613.9375"/><polygon fill="#181818" points="805.5,609.9375,795.5,613.9375,805.5,617.9375,801.5,613.9375" style="stroke:#181818;stroke-width:1.0;"/><text fill="#000000" font-family="sans-serif" font-size="13" lengthAdjust="spacing" textLength="118" x="801.5" y="579.7295">self.set_view_event()</text><text fill="#000000" font-family="sans-serif" font-size="13" lengthAdjust="spacing" textLength="358" x="801.5" y="596.0811">&#30011;&#38754;&#12398;UI&#35201;&#32032;(&#12508;&#12479;&#12531;&#12394;&#12393;)&#12398;&#12452;&#12505;&#12531;&#12488;&#12395;&#21508;&#12513;&#12477;&#12483;&#12489;&#12434;&#32016;&#12391;&#12389;&#12369;</text><line style="stroke:#181818;stroke-width:1.0;" x1="794.5" x2="836.5" y1="644.2891" y2="644.2891"/><line style="stroke:#181818;stroke-width:1.0;" x1="836.5" x2="836.5" y1="644.2891" y2="657.2891"/><line style="stroke:#181818;stroke-width:1.0;" x1="795.5" x2="836.5" y1="657.2891" y2="657.2891"/><polygon fill="#181818" points="805.5,653.2891,795.5,657.2891,805.5,661.2891,801.5,657.2891" style="stroke:#181818;stroke-width:1.0;"/><text fill="#000000" font-family="sans-serif" font-size="13" lengthAdjust="spacing" textLength="220" x="801.5" y="639.4326">self.view&#12434;grid()&#12513;&#12477;&#12483;&#12489;&#30011;&#38754;&#12395;&#37197;&#32622;&#12290;</text><polygon fill="#181818" points="33.5,683.6406,23.5,687.6406,33.5,691.6406,29.5,687.6406" style="stroke:#181818;stroke-width:1.0;"/><line style="stroke:#181818;stroke-width:1.0;" x1="27.5" x2="793.5" y1="687.6406" y2="687.6406"/><text fill="#000000" font-family="sans-serif" font-size="13" lengthAdjust="spacing" textLength="124" x="39.5" y="682.7842">&#12506;&#12540;&#12472;2&#12364;&#34920;&#31034;&#12373;&#12428;&#12427;</text><!--SRC=[bPFFRjD04CRlVefLJiu197Ai52J4gJUaAhTAbcbCi1JPbksqr-uka5HDHLe25QWL59NqJqGvf0BQDEHTc3hRl0MpkuwQk462YxtQcVtDzytisYkn7v9Iv8J4ZaWD_qPWXx6xuWQs5vCdTiLvS7VdiU_5eL-jPh8V1S6TtC9VSbNCC8f50hm3_0hOT_oEtcnT3_P8iMX8AUJUGrsFB93SakELSy3tW0s1zu3j0Fi6_1GunuK6iPwCy0RmhvB8Ju1sWJM0RIRrZcYzabpDcu1lnM69YX_xLe3RPawfo-MNFU0VbBYVO_f37FKr9zc-0jfBwfT0Tuqi1z7O1yH5p_srB2vT0JsR9tOJsCOIdW9-06mWdV6DcLeId4elp4YNjKpagyZDmR4ulDHIZMpk_EDEzTbzAy8EMwkkisQLxTYME4qIxMFWTTM6OVBwNV9hDvrRsfe2sj6PamRFAuXbW1sgqLrCPdWXsXz7ZTRlzRvI86i3FReUxe-QTDahBUgmHaw3djRSQjcgkQOybizc_fFRo8crLsVLyM9fLhJxu_tFwAMqUDEXuloJUNlRw2dGaxmQ6rfudqwETfFMY-bXuQqKvosq0FGBqEt_aAEiivrAw9RD_3HoegexVhab1cUmpkPHrMjPc1b9Kuy4w5jWJNm2nXy0]--></g></svg>