<?xml version="1.0" encoding="us-ascii" standalone="no"?><svg xmlns="http://www.w3.org/2000/svg" xmlns:xlink="http://www.w3.org/1999/xlink" contentStyleType="text/css" height="1013px" preserveAspectRatio="none" style="width:1264px;height:1013px;background:#FFFFFF;" version="1.1" viewBox="0 0 1264 1013" width="1264px" zoomAndPan="magnify"><defs/><g><line style="stroke:#181818;stroke-width:0.5;stroke-dasharray:5.0,5.0;" x1="22" x2="22" y1="82.6094" y2="931.8594"/><line style="stroke:#181818;stroke-width:0.5;stroke-dasharray:5.0,5.0;" x1="81" x2="81" y1="82.6094" y2="931.8594"/><line style="stroke:#181818;stroke-width:0.5;stroke-dasharray:5.0,5.0;" x1="228" x2="228" y1="82.6094" y2="931.8594"/><line style="stroke:#181818;stroke-width:0.5;stroke-dasharray:5.0,5.0;" x1="473.5" x2="473.5" y1="82.6094" y2="931.8594"/><line style="stroke:#181818;stroke-width:0.5;stroke-dasharray:5.0,5.0;" x1="562.5" x2="562.5" y1="82.6094" y2="931.8594"/><line style="stroke:#181818;stroke-width:0.5;stroke-dasharray:5.0,5.0;" x1="716" x2="716" y1="82.6094" y2="931.8594"/><line style="stroke:#181818;stroke-width:0.5;stroke-dasharray:5.0,5.0;" x1="1075" x2="1075" y1="82.6094" y2="931.8594"/><line style="stroke:#181818;stroke-width:0.5;stroke-dasharray:5.0,5.0;" x1="1171" x2="1171" y1="82.6094" y2="931.8594"/><text fill="#000000" font-family="sans-serif" font-size="14" lengthAdjust="spacing" textLength="29" x="5" y="79.5332">User</text><ellipse cx="22.5" cy="13.5" fill="#E2E2F0" rx="8" ry="8" style="stroke:#181818;stroke-width:0.5;"/><path d="M22.5,21.5 L22.5,48.5 M9.5,29.5 L35.5,29.5 M22.5,48.5 L9.5,63.5 M22.5,48.5 L35.5,63.5 " fill="none" style="stroke:#181818;stroke-width:0.5;"/><text fill="#000000" font-family="sans-serif" font-size="14" lengthAdjust="spacing" textLength="29" x="5" y="945.3926">User</text><ellipse cx="22.5" cy="956.9688" fill="#E2E2F0" rx="8" ry="8" style="stroke:#181818;stroke-width:0.5;"/><path d="M22.5,964.9688 L22.5,991.9688 M9.5,972.9688 L35.5,972.9688 M22.5,991.9688 L9.5,1006.9688 M22.5,991.9688 L35.5,1006.9688 " fill="none" style="stroke:#181818;stroke-width:0.5;"/><rect fill="#E2E2F0" height="31.6094" rx="2.5" ry="2.5" style="stroke:#181818;stroke-width:0.5;" width="63" x="50" y="50"/><text fill="#000000" font-family="sans-serif" font-size="14" lengthAdjust="spacing" textLength="49" x="57" y="71.5332">main.py</text><rect fill="#E2E2F0" height="31.6094" rx="2.5" ry="2.5" style="stroke:#181818;stroke-width:0.5;" width="63" x="50" y="930.8594"/><text fill="#000000" font-family="sans-serif" font-size="14" lengthAdjust="spacing" textLength="49" x="57" y="952.3926">main.py</text><rect fill="#E2E2F0" height="31.6094" rx="2.5" ry="2.5" style="stroke:#181818;stroke-width:0.5;" width="39" x="209" y="50"/><text fill="#000000" font-family="sans-serif" font-size="14" lengthAdjust="spacing" textLength="25" x="216" y="71.5332">App</text><rect fill="#E2E2F0" height="31.6094" rx="2.5" ry="2.5" style="stroke:#181818;stroke-width:0.5;" width="39" x="209" y="930.8594"/><text fill="#000000" font-family="sans-serif" font-size="14" lengthAdjust="spacing" textLength="25" x="216" y="952.3926">App</text><rect fill="#E2E2F0" height="31.6094" rx="2.5" ry="2.5" style="stroke:#181818;stroke-width:0.5;" width="88" x="429.5" y="50"/><text fill="#000000" font-family="sans-serif" font-size="14" lengthAdjust="spacing" textLength="74" x="436.5" y="71.5332">CustomCTk</text><rect fill="#E2E2F0" height="31.6094" rx="2.5" ry="2.5" style="stroke:#181818;stroke-width:0.5;" width="88" x="429.5" y="930.8594"/><text fill="#000000" font-family="sans-serif" font-size="14" lengthAdjust="spacing" textLength="74" x="436.5" y="952.3926">CustomCTk</text><rect fill="#E2E2F0" height="31.6094" rx="2.5" ry="2.5" style="stroke:#181818;stroke-width:0.5;" width="70" x="527.5" y="50"/><text fill="#000000" font-family="sans-serif" font-size="14" lengthAdjust="spacing" textLength="56" x="534.5" y="71.5332">MyModel</text><rect fill="#E2E2F0" height="31.6094" rx="2.5" ry="2.5" style="stroke:#181818;stroke-width:0.5;" width="70" x="527.5" y="930.8594"/><text fill="#000000" font-family="sans-serif" font-size="14" lengthAdjust="spacing" textLength="56" x="534.5" y="952.3926">MyModel</text><rect fill="#E2E2F0" height="31.6094" rx="2.5" ry="2.5" style="stroke:#181818;stroke-width:0.5;" width="117" x="658" y="50"/><text fill="#000000" font-family="sans-serif" font-size="14" lengthAdjust="spacing" textLength="103" x="665" y="71.5332">Page1Controller</text><rect fill="#E2E2F0" height="31.6094" rx="2.5" ry="2.5" style="stroke:#181818;stroke-width:0.5;" width="117" x="658" y="930.8594"/><text fill="#000000" font-family="sans-serif" font-size="14" lengthAdjust="spacing" textLength="103" x="665" y="952.3926">Page1Controller</text><rect fill="#E2E2F0" height="31.6094" rx="2.5" ry="2.5" style="stroke:#181818;stroke-width:0.5;" width="117" x="1017" y="50"/><text fill="#000000" font-family="sans-serif" font-size="14" lengthAdjust="spacing" textLength="103" x="1024" y="71.5332">Page2Controller</text><rect fill="#E2E2F0" height="31.6094" rx="2.5" ry="2.5" style="stroke:#181818;stroke-width:0.5;" width="117" x="1017" y="930.8594"/><text fill="#000000" font-family="sans-serif" font-size="14" lengthAdjust="spacing" textLength="103" x="1024" y="952.3926">Page2Controller</text><rect fill="#E2E2F0" height="31.6094" rx="2.5" ry="2.5" style="stroke:#181818;stroke-width:0.5;" width="55" x="1144" y="50"/><text fill="#000000" font-family="sans-serif" font-size="14" lengthAdjust="spacing" textLength="41" x="1151" y="71.5332">Page1</text><rect fill="#E2E2F0" height="31.6094" rx="2.5" ry="2.5" style="stroke:#181818;stroke-width:0.5;" width="55" x="1144" y="930.8594"/><text fill="#000000" font-family="sans-serif" font-size="14" lengthAdjust="spacing" textLength="41" x="1151" y="952.3926">Page1</text><rect fill="#EEEEEE" height="3" style="stroke:#EEEEEE;stroke-width:1.0;" width="1257.5" x="0" y="113.7852"/><line style="stroke:#000000;stroke-width:1.0;" x1="0" x2="1257.5" y1="113.7852" y2="113.7852"/><line style="stroke:#000000;stroke-width:1.0;" x1="0" x2="1257.5" y1="116.7852" y2="116.7852"/><rect fill="#EEEEEE" height="24.3516" style="stroke:#000000;stroke-width:2.0;" width="165.4688" x="546.0156" y="102.6094"/><text fill="#000000" font-family="sans-serif" font-size="13" font-weight="bold" lengthAdjust="spacing" textLength="147.4688" x="552.0156" y="120.1045">&#12450;&#12503;&#12522;&#12465;&#12540;&#12471;&#12519;&#12531;&#21021;&#26399;&#21270;</text><polygon fill="#181818" points="69.5,155.3125,79.5,159.3125,69.5,163.3125,73.5,159.3125" style="stroke:#181818;stroke-width:1.0;"/><line style="stroke:#181818;stroke-width:1.0;" x1="22.5" x2="75.5" y1="159.3125" y2="159.3125"/><text fill="#000000" font-family="sans-serif" font-size="13" lengthAdjust="spacing" textLength="26" x="29.5" y="154.4561">&#23455;&#34892;</text><polygon fill="#181818" points="216.5,202.0156,226.5,206.0156,216.5,210.0156,220.5,206.0156" style="stroke:#181818;stroke-width:1.0;"/><line style="stroke:#181818;stroke-width:1.0;" x1="81.5" x2="222.5" y1="206.0156" y2="206.0156"/><text fill="#000000" font-family="sans-serif" font-size="13" lengthAdjust="spacing" textLength="104" x="88.5" y="184.8076">&#12452;&#12531;&#12473;&#12479;&#12531;&#12473;&#29983;&#25104;</text><text fill="#000000" font-family="sans-serif" font-size="13" lengthAdjust="spacing" textLength="123" x="88.5" y="201.1592">&#8251;&#22793;&#25968;self.app&#12391;&#20445;&#25345;</text><polygon fill="#181818" points="461.5,265.0703,471.5,269.0703,461.5,273.0703,465.5,269.0703" style="stroke:#181818;stroke-width:1.0;"/><line style="stroke:#181818;stroke-width:1.0;" x1="228.5" x2="467.5" y1="269.0703" y2="269.0703"/><text fill="#000000" font-family="sans-serif" font-size="13" lengthAdjust="spacing" textLength="104" x="235.5" y="231.5107">&#12452;&#12531;&#12473;&#12479;&#12531;&#12473;&#29983;&#25104;</text><text fill="#000000" font-family="sans-serif" font-size="13" lengthAdjust="spacing" textLength="221" x="235.5" y="247.8623">&#12486;&#12540;&#12510;&#12459;&#12521;&#12540;&#12420;&#12454;&#12451;&#12531;&#12489;&#12454;&#12469;&#12452;&#12474;&#35373;&#23450;</text><text fill="#000000" font-family="sans-serif" font-size="13" lengthAdjust="spacing" textLength="124" x="235.5" y="264.2139">&#8251;&#22793;&#25968;self.root&#12391;&#20445;&#25345;</text><polygon fill="#181818" points="550.5,328.125,560.5,332.125,550.5,336.125,554.5,332.125" style="stroke:#181818;stroke-width:1.0;"/><line style="stroke:#181818;stroke-width:1.0;" x1="228.5" x2="556.5" y1="332.125" y2="332.125"/><text fill="#000000" font-family="sans-serif" font-size="13" lengthAdjust="spacing" textLength="104" x="235.5" y="294.5654">&#12452;&#12531;&#12473;&#12479;&#12531;&#12473;&#29983;&#25104;</text><text fill="#000000" font-family="sans-serif" font-size="13" lengthAdjust="spacing" textLength="143" x="235.5" y="310.917">&#20445;&#25345;&#12487;&#12540;&#12479;&#12398;&#21021;&#26399;&#20516;&#35373;&#23450;</text><text fill="#000000" font-family="sans-serif" font-size="13" lengthAdjust="spacing" textLength="162" x="235.5" y="327.2686">&#8251;&#22793;&#25968;self.my_model&#12391;&#20445;&#25345;</text><polygon fill="#181818" points="704.5,374.8281,714.5,378.8281,704.5,382.8281,708.5,378.8281" style="stroke:#181818;stroke-width:1.0;"/><line style="stroke:#181818;stroke-width:1.0;" x1="228.5" x2="710.5" y1="378.8281" y2="378.8281"/><text fill="#000000" font-family="sans-serif" font-size="13" lengthAdjust="spacing" textLength="104" x="235.5" y="357.6201">&#12452;&#12531;&#12473;&#12479;&#12531;&#12473;&#29983;&#25104;</text><text fill="#000000" font-family="sans-serif" font-size="13" lengthAdjust="spacing" textLength="317" x="235.5" y="373.9717">&#8251;&#22793;&#25968;self.conns&#12391;&#20445;&#25345;(&#36766;&#26360;&#22411;&#12522;&#12473;&#12488;(&#12461;&#12540;&#65306;"Page1"))</text><polygon fill="#181818" points="1063.5,421.5313,1073.5,425.5313,1063.5,429.5313,1067.5,425.5313" style="stroke:#181818;stroke-width:1.0;"/><line style="stroke:#181818;stroke-width:1.0;" x1="228.5" x2="1069.5" y1="425.5313" y2="425.5313"/><text fill="#000000" font-family="sans-serif" font-size="13" lengthAdjust="spacing" textLength="104" x="235.5" y="404.3232">&#12452;&#12531;&#12473;&#12479;&#12531;&#12473;&#29983;&#25104;</text><text fill="#000000" font-family="sans-serif" font-size="13" lengthAdjust="spacing" textLength="317" x="235.5" y="420.6748">&#8251;&#22793;&#25968;self.conns&#12391;&#20445;&#25345;(&#36766;&#26360;&#22411;&#12522;&#12473;&#12488;(&#12461;&#12540;&#65306;"Page2"))</text><rect fill="#EEEEEE" height="3" style="stroke:#EEEEEE;stroke-width:1.0;" width="1257.5" x="0" y="454.707"/><line style="stroke:#000000;stroke-width:1.0;" x1="0" x2="1257.5" y1="454.707" y2="454.707"/><line style="stroke:#000000;stroke-width:1.0;" x1="0" x2="1257.5" y1="457.707" y2="457.707"/><rect fill="#EEEEEE" height="24.3516" style="stroke:#000000;stroke-width:2.0;" width="138.6563" x="559.4219" y="443.5313"/><text fill="#000000" font-family="sans-serif" font-size="13" font-weight="bold" lengthAdjust="spacing" textLength="120.6563" x="565.4219" y="461.0264">&#26368;&#21021;&#12398;&#12506;&#12540;&#12472;&#12434;&#34920;&#31034;</text><polygon fill="#181818" points="216.5,512.5859,226.5,516.5859,216.5,520.5859,220.5,516.5859" style="stroke:#181818;stroke-width:1.0;"/><line style="stroke:#181818;stroke-width:1.0;" x1="81.5" x2="222.5" y1="516.5859" y2="516.5859"/><text fill="#000000" font-family="sans-serif" font-size="13" lengthAdjust="spacing" textLength="75" x="88.5" y="495.3779">self.app.run()</text><text fill="#000000" font-family="sans-serif" font-size="13" lengthAdjust="spacing" textLength="91" x="88.5" y="511.7295">&#12450;&#12503;&#12522;&#36215;&#21205;&#20966;&#29702;</text><polygon fill="#181818" points="704.5,559.2891,714.5,563.2891,704.5,567.2891,708.5,563.2891" style="stroke:#181818;stroke-width:1.0;"/><line style="stroke:#181818;stroke-width:1.0;" x1="228.5" x2="710.5" y1="563.2891" y2="563.2891"/><text fill="#000000" font-family="sans-serif" font-size="13" lengthAdjust="spacing" textLength="169" x="235.5" y="542.0811">self.app.show_page("Page1")</text><text fill="#000000" font-family="sans-serif" font-size="13" lengthAdjust="spacing" textLength="154" x="235.5" y="558.4326">Page1&#12398;&#34920;&#31034;&#20966;&#29702;&#21628;&#12403;&#20986;&#12375;</text><polygon fill="#181818" points="573.5,605.9922,563.5,609.9922,573.5,613.9922,569.5,609.9922" style="stroke:#181818;stroke-width:1.0;"/><line style="stroke:#181818;stroke-width:1.0;" x1="567.5" x2="715.5" y1="609.9922" y2="609.9922"/><text fill="#000000" font-family="sans-serif" font-size="13" lengthAdjust="spacing" textLength="106" x="579.5" y="588.7842">_send_view_data()</text><text fill="#000000" font-family="sans-serif" font-size="13" lengthAdjust="spacing" textLength="130" x="579.5" y="605.1357">&#30011;&#38754;&#34920;&#31034;&#29992;&#12487;&#12540;&#12479;&#21462;&#24471;</text><polygon fill="#181818" points="1159.5,669.0469,1169.5,673.0469,1159.5,677.0469,1163.5,673.0469" style="stroke:#181818;stroke-width:1.0;"/><line style="stroke:#181818;stroke-width:1.0;" x1="716.5" x2="1165.5" y1="673.0469" y2="673.0469"/><text fill="#000000" font-family="sans-serif" font-size="13" lengthAdjust="spacing" textLength="104" x="723.5" y="635.4873">&#12452;&#12531;&#12473;&#12479;&#12531;&#12473;&#29983;&#25104;</text><text fill="#000000" font-family="sans-serif" font-size="13" lengthAdjust="spacing" textLength="65" x="723.5" y="651.8389">&#21021;&#26399;&#21270;&#20966;&#29702;</text><text fill="#000000" font-family="sans-serif" font-size="13" lengthAdjust="spacing" textLength="126" x="723.5" y="668.1904">&#8251;&#22793;&#25968;self.view&#12391;&#20445;&#25345;</text><line style="stroke:#181818;stroke-width:1.0;" x1="1171.5" x2="1213.5" y1="719.75" y2="719.75"/><line style="stroke:#181818;stroke-width:1.0;" x1="1213.5" x2="1213.5" y1="719.75" y2="732.75"/><line style="stroke:#181818;stroke-width:1.0;" x1="1172.5" x2="1213.5" y1="732.75" y2="732.75"/><polygon fill="#181818" points="1182.5,728.75,1172.5,732.75,1182.5,736.75,1178.5,732.75" style="stroke:#181818;stroke-width:1.0;"/><text fill="#000000" font-family="sans-serif" font-size="13" lengthAdjust="spacing" textLength="72" x="1178.5" y="698.542">build_ui(self)</text><text fill="#000000" font-family="sans-serif" font-size="13" lengthAdjust="spacing" textLength="38" x="1178.5" y="714.8936">UI&#29983;&#25104;</text><line style="stroke:#181818;stroke-width:1.0;" x1="716.5" x2="758.5" y1="779.4531" y2="779.4531"/><line style="stroke:#181818;stroke-width:1.0;" x1="758.5" x2="758.5" y1="779.4531" y2="792.4531"/><line style="stroke:#181818;stroke-width:1.0;" x1="717.5" x2="758.5" y1="792.4531" y2="792.4531"/><polygon fill="#181818" points="727.5,788.4531,717.5,792.4531,727.5,796.4531,723.5,792.4531" style="stroke:#181818;stroke-width:1.0;"/><text fill="#000000" font-family="sans-serif" font-size="13" lengthAdjust="spacing" textLength="118" x="723.5" y="758.2451">self.set_view_event()</text><text fill="#000000" font-family="sans-serif" font-size="13" lengthAdjust="spacing" textLength="345" x="723.5" y="774.5967">&#30011;&#38754;&#12398;UI&#35201;&#32032;(&#12508;&#12479;&#12531;&#12394;&#12393;)&#12398;&#12452;&#12505;&#12531;&#12488;&#12395;&#21508;&#12513;&#12477;&#12483;&#12489;&#12434;&#32016;&#12389;&#12369;</text><rect fill="#EEEEEE" height="3" style="stroke:#EEEEEE;stroke-width:1.0;" width="1257.5" x="0" y="821.6289"/><line style="stroke:#000000;stroke-width:1.0;" x1="0" x2="1257.5" y1="821.6289" y2="821.6289"/><line style="stroke:#000000;stroke-width:1.0;" x1="0" x2="1257.5" y1="824.6289" y2="824.6289"/><rect fill="#EEEEEE" height="24.3516" style="stroke:#000000;stroke-width:2.0;" width="178.875" x="539.3125" y="810.4531"/><text fill="#000000" font-family="sans-serif" font-size="13" font-weight="bold" lengthAdjust="spacing" textLength="160.875" x="545.3125" y="827.9482">&#12513;&#12452;&#12531;&#12523;&#12540;&#12503;&#38283;&#22987;&#65288;&#36215;&#21205;&#65289;</text><polygon fill="#181818" points="461.5,879.5078,471.5,883.5078,461.5,887.5078,465.5,883.5078" style="stroke:#181818;stroke-width:1.0;"/><line style="stroke:#181818;stroke-width:1.0;" x1="228.5" x2="467.5" y1="883.5078" y2="883.5078"/><text fill="#000000" font-family="sans-serif" font-size="13" lengthAdjust="spacing" textLength="110" x="235.5" y="862.2998">self.root.mainloop()</text><text fill="#000000" font-family="sans-serif" font-size="13" lengthAdjust="spacing" textLength="65" x="235.5" y="878.6514">&#12450;&#12503;&#12522;&#36215;&#21205;</text><polygon fill="#181818" points="33.5,909.8594,23.5,913.8594,33.5,917.8594,29.5,913.8594" style="stroke:#181818;stroke-width:1.0;"/><line style="stroke:#181818;stroke-width:1.0;" x1="27.5" x2="472.5" y1="913.8594" y2="913.8594"/><text fill="#000000" font-family="sans-serif" font-size="13" lengthAdjust="spacing" textLength="193" x="39.5" y="909.0029">&#30011;&#38754;&#34920;&#31034;&#65288;Page1&#12364;&#34920;&#31034;&#12373;&#12428;&#12427;&#65289;</text><!--SRC=[lLJFJnf15BxlNx7n18UIoD649eqd3oOzr9i9sSAs9LrsD-oYuSRC68L0KZI2ALKfbW9g96tKg4ZbV-dhiEl9Vw4piyWlaQINddRslNdVzytttemIiOs4l6Af2Lcnv2JxIgQIi6EHcAdejXnNOdh0JF7SCbkEvLwPvjZ_OjAoZVZYcuzZqUNKiX5LjR7OQ-MzEhzew7R2qBG9HfuBpiZDIr8e90C-0h87v0JmJo0Tm5T06a3EQUQWjr-X-P8S2adyDFABbqAvl23JLiMjvYNnnw9CFWi2hh4om3U0kzx2sQtqCeLL_NVwbjQolU8FIzNU1HJJ1DJuqptevP74Ind2uC0pSO1iSeNa4F0fa6EXTWDm7V0tlf5anVgI0-2sspoZhV8aUS8mx2ViVMDdSdiLGBO4QnTGgszGkZQTAPuAnpdg4xQ9bls3Sn53rwq1di-zE-nzkQQ7ET6y6o0P7-0pfk-XKvuJB7D-_oXhyB-m1ZahdwpUVffvn9m2KXQkNGFUSQjDfzRcCpK-FO-Z4KWaTP-VzVfnBDtBAvehqgswKzXyti91kVN1M0-RBEzxj61L5mkcm-FseEXs1z0vtMe3sfCcySPc8cofUZIy5bFNmr75LhWuP_Vs_k38WtDscuEfe9zAz6ugd0ZDD7rmtpnzartW_CDHyk16SDycOreqd8pv-6QcS6N9mtrMorFtBDNsJgckgRezF2OpRcN9hIFdugiFo7vVE3e1TEpdpUKd-YpkNmRGAIri0Aa2_WM4Y1kvurmK07q7j2rvxmtF2XF8gRZDU_Ub76ta7ZePhzKFdImVZoalm-061_XZgXc6EMLIf645AnSFru8ysZ16r1-8l1S0L0IS1ymaPAM_]--></g></svg>